M48
;GenerationSoftware,Autodesk,EAGLE,9.6.2*%
;CreationDate,2020-11-30T11:42:52Z*%
FMAT,2
ICI,OFF
METRIC,TZ,000.000
T10C0.350
T9C0.711
T8C0.800
T7C0.813
T6C0.914
T5C1.000
T4C1.118
T3C1.200
T2C1.651
%
G90
M71
T2
X61925Y70523
X61925Y29883
X46685Y29883
X46685Y70523
T3
X25756Y47955
X41631Y47955
X25756Y69545
X41631Y69545
T4
X33947Y20307
X30137Y20307
X26327Y20307
T5
X76276Y37389
X69343Y27316
X75843Y31816
X69343Y31816
X69394Y22875
X73736Y37389
X71196Y37389
X75843Y27316
X78816Y37389
X75894Y22875
X69394Y18375
X75894Y18375
X29032Y42084
X29032Y37084
X68656Y37389
X66116Y37389
T6
X46685Y65443
X61925Y34963
X46685Y67983
X61925Y65443
X61925Y62903
X61925Y60363
X61925Y57823
X61925Y55283
X61925Y52743
X61925Y50203
X61925Y47663
X61925Y45123
X61925Y42583
X61925Y40043
X61925Y37503
X46685Y62903
X46685Y60363
X46685Y57823
X46685Y55283
X46685Y52743
X46685Y50203
X46685Y47663
X61925Y67983
X46685Y32423
X46685Y34963
X46685Y37503
X46685Y45123
X46685Y42583
X61925Y32423
X46685Y40043
T7
X52172Y47193
X69698Y52172
X74828Y52070
X74828Y62230
X56185Y34493
X56185Y44653
X27330Y28219
X27330Y30759
X52172Y37033
X69698Y62332
X36703Y30759
X36703Y28219
T8
X24028Y16271
X23795Y73208
X80813Y73177
X80985Y16144
T9
X40573Y40929
X40573Y36929
X38573Y38929
X40573Y38929
X40573Y42929
X38573Y42929
X38573Y40929
X38573Y36929
T10
X69394Y22875
X75006Y40701
X65827Y70521
X48677Y42342
X71406Y48419
X67907Y42812
X53791Y30436
X52438Y28854
X46939Y24955
X54902Y24842
X41440Y21895
X35966Y23457
X51219Y20384
X29007Y37084
X29045Y42062
M30