M48
;GenerationSoftware,Autodesk,EAGLE,9.6.2*%
;CreationDate,2021-01-05T01:24:31Z*%
FMAT,2
ICI,OFF
METRIC,TZ,000.000
T12C0.350
T11C0.600
T10C0.650
T9C0.711
T8C0.800
T7C0.813
T6C0.914
T5C1.000
T4C1.118
T3C1.200
T2C1.651
%
G90
M71
T2
X46772Y28420
X62012Y28420
X62012Y69060
X46772Y69060
T3
X41631Y69545
X25756Y69545
X41631Y47955
X25756Y47955
T4
X26327Y20307
X30137Y20307
X33947Y20307
T5
X69343Y27316
X75894Y18375
X75843Y31816
X69343Y31816
X78816Y37389
X76276Y37389
X68656Y37389
X66116Y37389
X71196Y37389
X73736Y37389
X75843Y27316
X29032Y37084
X29032Y42084
X69394Y22875
X75894Y22875
X69394Y18375
T6
X46772Y51280
X46772Y48740
X46772Y46200
X46772Y43660
X46772Y41120
X46772Y38580
X46772Y53820
X46772Y56360
X46772Y30960
X62012Y46200
X46772Y58900
X46772Y61440
X46772Y63980
X46772Y66520
X62012Y30960
X62012Y33500
X62012Y36040
X62012Y38580
X62012Y41120
X62012Y43660
X46772Y36040
X62012Y48740
X62012Y51280
X62012Y53820
X62012Y56360
X62012Y58900
X62012Y61440
X62012Y63980
X62012Y66520
X46772Y33500
T7
X34331Y30759
X50998Y36927
X57521Y54767
X49901Y54767
X57531Y52227
X49911Y52227
X57551Y49632
X49931Y49632
X34331Y28219
X50998Y47087
X69698Y62332
X69698Y52172
X74828Y52070
X74828Y62230
X53731Y34940
X53731Y45100
X27330Y28219
X27330Y30759
T8
X40992Y30165
X42421Y28895
X40992Y27625
X42421Y31435
X24028Y16271
X23795Y73208
X80813Y73177
X80985Y16144
T9
X38573Y42929
X40573Y40929
X38573Y40929
X40573Y38929
X38573Y38929
X40573Y36929
X38573Y36929
X40573Y42929
T10
X51079Y69530
X34590Y44480
X36317Y69489
X41549Y57536
X49263Y69738
X31506Y42052
X31379Y68920
X56225Y71003
X41509Y62266
T11
X54977Y25017
X48788Y42250
X75032Y40813
X68006Y72568
X54000Y30526
X67072Y43525
X71664Y48255
X52395Y29479
X47107Y25065
X44069Y21534
X37744Y23271
X51684Y20086
T12
X29007Y37084
X29045Y42062
X69394Y22875
M30