G04 EAGLE Gerber RS-274X export*
G75*
%MOMM*%
%FSLAX34Y34*%
%LPD*%
%INBottom Copper*%
%IPPOS*%
%AMOC8*
5,1,8,0,0,1.08239X$1,22.5*%
G01*
%ADD10C,1.508000*%
%ADD11R,1.508000X1.508000*%
%ADD12P,1.429621X8X112.500000*%
%ADD13C,1.508000*%
%ADD14P,1.429621X8X292.500000*%
%ADD15R,3.000000X3.000000*%
%ADD16R,1.219200X1.219200*%
%ADD17C,1.219200*%
%ADD18C,1.676400*%
%ADD19R,1.778000X1.778000*%
%ADD20C,1.778000*%
%ADD21P,1.429621X8X22.500000*%
%ADD22P,1.415766X8X202.500000*%
%ADD23C,1.308000*%
%ADD24C,0.406400*%
%ADD25C,1.200000*%
%ADD26C,1.150000*%
%ADD27C,0.381000*%
%ADD28C,1.300000*%


D10*
X686562Y373888D03*
D11*
X661162Y373888D03*
D10*
X711962Y373888D03*
X737362Y373888D03*
X762762Y373888D03*
X788162Y373888D03*
D12*
X343306Y282194D03*
X343306Y307594D03*
D13*
X685892Y318156D02*
X700972Y318156D01*
X750892Y318156D02*
X765972Y318156D01*
X700972Y273156D02*
X685892Y273156D01*
X750892Y273156D02*
X765972Y273156D01*
D14*
X696976Y623316D03*
X696976Y521716D03*
D12*
X748284Y520700D03*
X748284Y622300D03*
X537312Y349402D03*
X537312Y451002D03*
X273304Y282194D03*
X273304Y307594D03*
X509981Y369265D03*
X509981Y470865D03*
D13*
X686400Y228748D02*
X701480Y228748D01*
X751400Y228748D02*
X766480Y228748D01*
X701480Y183748D02*
X686400Y183748D01*
X751400Y183748D02*
X766480Y183748D01*
D15*
X416306Y695452D03*
X257556Y695452D03*
X416306Y479552D03*
X257556Y479552D03*
D16*
X385732Y369288D03*
D17*
X405732Y369288D03*
X385732Y389288D03*
X405732Y389288D03*
X385732Y409288D03*
X405732Y409288D03*
X385732Y429288D03*
X405732Y429288D03*
D10*
X290322Y370840D03*
X290322Y420840D03*
D18*
X339471Y211455D02*
X339471Y194691D01*
X301371Y194691D02*
X301371Y211455D01*
X263271Y211455D02*
X263271Y194691D01*
D19*
X467716Y665201D03*
D20*
X467716Y639801D03*
X467716Y614401D03*
X467716Y589001D03*
X467716Y563601D03*
X467716Y538201D03*
X467716Y512801D03*
X467716Y487401D03*
X467716Y462001D03*
X467716Y436601D03*
X467716Y411201D03*
X467716Y385801D03*
X467716Y360401D03*
X467716Y335001D03*
X467716Y309601D03*
X620116Y665201D03*
X620116Y639801D03*
X620116Y614401D03*
X620116Y589001D03*
X620116Y563601D03*
X620116Y538201D03*
X620116Y512801D03*
X620116Y487401D03*
X620116Y462001D03*
X620116Y436601D03*
X620116Y411201D03*
X620116Y385801D03*
X620116Y360401D03*
X620116Y335001D03*
X620116Y309601D03*
D21*
X499313Y496316D03*
X575513Y496316D03*
X499110Y522275D03*
X575310Y522275D03*
X499008Y547675D03*
X575208Y547675D03*
D22*
X409924Y276250D03*
X424212Y288950D03*
D23*
X409924Y301650D03*
D22*
X424212Y314350D03*
D24*
X343306Y307594D02*
X273304Y307594D01*
X343306Y307594D02*
X374650Y307594D01*
X463042Y219202D01*
X684394Y219202D02*
X693940Y228748D01*
D25*
X693940Y228748D03*
D24*
X684394Y219202D02*
X463042Y219202D01*
X737362Y373888D02*
X737362Y481330D01*
X696976Y521716D01*
X737362Y362086D02*
X693432Y318156D01*
X737362Y362086D02*
X737362Y373888D01*
X729590Y264398D02*
X693940Y228748D01*
X729590Y264398D02*
X729590Y289712D01*
X701146Y318156D01*
X693432Y318156D01*
X403980Y307594D02*
X343306Y307594D01*
X403980Y307594D02*
X409924Y301650D01*
D26*
X487883Y422504D03*
D24*
X487883Y380568D01*
X467716Y360401D01*
D26*
X750316Y408127D03*
D24*
X772008Y408127D01*
X772312Y407822D01*
X785571Y421081D01*
X785571Y637184D01*
X697078Y725678D02*
X680060Y725678D01*
D26*
X680060Y725678D03*
D24*
X697078Y725678D02*
X785571Y637184D01*
D26*
X540004Y305257D03*
X670722Y435254D03*
D24*
X671281Y435813D02*
X671281Y436178D01*
X671281Y435813D02*
X670722Y435254D01*
X677072Y441604D01*
X694893Y441604D01*
X716636Y463347D01*
X716636Y482549D01*
D26*
X716636Y482549D03*
D24*
X510261Y335001D02*
X467716Y335001D01*
X510261Y335001D02*
X540004Y305257D01*
D27*
X697738Y622554D02*
X696976Y623316D01*
D24*
X697992Y622300D02*
X748284Y622300D01*
X697992Y622300D02*
X696976Y623316D01*
X686562Y394843D02*
X686562Y373888D01*
X686562Y394843D02*
X660400Y421005D01*
X660400Y584708D01*
X697992Y622300D01*
X429862Y389288D02*
X405732Y389288D01*
X429862Y389288D02*
X447675Y371475D01*
X447675Y260731D01*
X515239Y260731D02*
X593319Y338811D01*
X593319Y511023D01*
X620713Y538417D01*
X515239Y260731D02*
X447675Y260731D01*
X405732Y389288D02*
X385732Y389288D01*
X385732Y369288D02*
X405732Y369288D01*
X419001Y369288D01*
X440157Y348132D01*
X440157Y259588D01*
X469557Y230188D01*
X563791Y230188D01*
X600685Y470916D02*
X617169Y487401D01*
X620116Y487401D01*
X600685Y267081D02*
X563791Y230188D01*
X600685Y267081D02*
X600685Y470916D01*
X537312Y451002D02*
X537083Y451231D01*
X537312Y451002D02*
X482117Y451002D01*
X467716Y436601D01*
D26*
X523951Y294792D03*
D24*
X509143Y309601D01*
X467716Y309601D01*
X328770Y409288D02*
X290322Y370840D01*
X328770Y409288D02*
X385732Y409288D01*
X405732Y409288D01*
D26*
X471068Y250647D03*
D24*
X475031Y246685D01*
X549767Y246685D02*
X549767Y250167D01*
X549767Y246685D02*
X475031Y246685D01*
D26*
X549767Y250167D03*
D24*
X419702Y429288D02*
X445262Y454848D01*
X419702Y429288D02*
X405732Y429288D01*
X445262Y454848D02*
X445262Y713232D01*
X445389Y713232D02*
X445389Y703072D01*
X445262Y713232D02*
X445389Y713232D01*
X445262Y713232D02*
X460705Y728675D01*
X563804Y728675D01*
X592201Y700278D01*
X592201Y630059D01*
X620116Y602144D02*
X620116Y589001D01*
X620116Y602144D02*
X592201Y630059D01*
X405732Y429288D02*
X385732Y429288D01*
X350418Y282194D02*
X417271Y215341D01*
X350418Y282194D02*
X343306Y282194D01*
X417271Y215341D02*
X440690Y215341D01*
D26*
X440690Y215341D03*
D24*
X322783Y232715D02*
X273304Y282194D01*
D26*
X377444Y232715D03*
D24*
X322783Y232715D01*
X476580Y470865D02*
X509981Y470865D01*
X476580Y470865D02*
X467716Y462001D01*
X533954Y183748D02*
X693940Y183748D01*
X533954Y183748D02*
X516839Y200863D01*
D26*
X516839Y200863D03*
D28*
X290068Y370840D03*
X290449Y420624D03*
D24*
X490398Y487401D02*
X499313Y496316D01*
X490398Y487401D02*
X467716Y487401D01*
X489636Y512801D02*
X499110Y522275D01*
X489636Y512801D02*
X467716Y512801D01*
X489534Y538201D02*
X499008Y547675D01*
X489534Y538201D02*
X467716Y538201D01*
D28*
X345897Y444805D03*
D24*
X345897Y677621D01*
X363169Y694893D01*
D28*
X363169Y694893D03*
D24*
X574929Y498221D02*
X574929Y498196D01*
D28*
X510794Y695300D03*
D24*
X524561Y681533D01*
X524561Y512064D01*
X539902Y496722D01*
X575107Y496722D02*
X575513Y496316D01*
X575107Y496722D02*
X539902Y496722D01*
D28*
X415493Y575361D03*
D24*
X415493Y618896D01*
X416357Y619760D01*
X416357Y621386D01*
X415087Y622656D01*
D28*
X415087Y622656D03*
X492631Y697382D03*
D24*
X492631Y702056D01*
X506882Y716308D01*
X506882Y716331D01*
X534822Y716331D01*
X551282Y699872D01*
X551282Y537007D01*
X566014Y522275D01*
X575310Y522275D01*
D28*
X315062Y420522D03*
D24*
X315062Y687934D01*
X313792Y689204D01*
D28*
X313792Y689204D03*
X562254Y710032D03*
D24*
X575208Y697078D01*
X575208Y547675D01*
M02*
