G04 EAGLE Gerber RS-274X export*
G75*
%MOMM*%
%FSLAX34Y34*%
%LPD*%
%INTop Copper*%
%IPPOS*%
%AMOC8*
5,1,8,0,0,1.08239X$1,22.5*%
G01*
%ADD10C,0.279400*%
%ADD11C,0.130000*%
%ADD12C,0.152400*%
%ADD13C,1.508000*%
%ADD14R,1.508000X1.508000*%
%ADD15P,1.429621X8X112.500000*%
%ADD16C,1.508000*%
%ADD17P,1.429621X8X292.500000*%
%ADD18R,3.000000X3.000000*%
%ADD19R,1.219200X1.219200*%
%ADD20C,1.219200*%
%ADD21C,1.676400*%
%ADD22R,1.778000X1.778000*%
%ADD23C,1.778000*%
%ADD24C,1.200000*%
%ADD25C,0.406400*%
%ADD26C,1.300000*%
%ADD27C,0.850000*%


D10*
X499811Y669646D02*
X504467Y683616D01*
X509124Y669646D01*
X507960Y673138D02*
X500975Y673138D01*
X515863Y669646D02*
X515863Y678959D01*
X520519Y678959D01*
X520519Y677407D01*
X531740Y683616D02*
X531740Y669646D01*
X527859Y669646D01*
X527765Y669648D01*
X527672Y669654D01*
X527578Y669663D01*
X527486Y669676D01*
X527393Y669693D01*
X527302Y669714D01*
X527211Y669738D01*
X527122Y669766D01*
X527033Y669797D01*
X526947Y669832D01*
X526861Y669871D01*
X526777Y669913D01*
X526695Y669958D01*
X526615Y670006D01*
X526537Y670058D01*
X526460Y670113D01*
X526387Y670171D01*
X526315Y670231D01*
X526246Y670295D01*
X526180Y670361D01*
X526116Y670430D01*
X526056Y670502D01*
X525998Y670575D01*
X525943Y670652D01*
X525891Y670730D01*
X525843Y670810D01*
X525798Y670892D01*
X525756Y670976D01*
X525717Y671062D01*
X525682Y671148D01*
X525651Y671237D01*
X525623Y671326D01*
X525599Y671417D01*
X525578Y671508D01*
X525561Y671601D01*
X525548Y671693D01*
X525539Y671787D01*
X525533Y671880D01*
X525531Y671974D01*
X525531Y676631D01*
X525533Y676725D01*
X525539Y676818D01*
X525548Y676912D01*
X525561Y677004D01*
X525578Y677097D01*
X525599Y677188D01*
X525623Y677279D01*
X525651Y677368D01*
X525682Y677457D01*
X525717Y677543D01*
X525756Y677629D01*
X525798Y677713D01*
X525843Y677795D01*
X525891Y677875D01*
X525943Y677953D01*
X525998Y678030D01*
X526056Y678103D01*
X526116Y678175D01*
X526180Y678244D01*
X526246Y678310D01*
X526315Y678374D01*
X526387Y678434D01*
X526460Y678492D01*
X526537Y678547D01*
X526615Y678599D01*
X526695Y678647D01*
X526777Y678692D01*
X526861Y678734D01*
X526947Y678773D01*
X527033Y678808D01*
X527122Y678839D01*
X527211Y678867D01*
X527302Y678891D01*
X527393Y678912D01*
X527486Y678929D01*
X527578Y678942D01*
X527672Y678951D01*
X527765Y678957D01*
X527859Y678959D01*
X531740Y678959D01*
X539518Y678959D02*
X539518Y671974D01*
X539519Y671974D02*
X539521Y671880D01*
X539527Y671787D01*
X539536Y671693D01*
X539549Y671601D01*
X539566Y671508D01*
X539587Y671417D01*
X539611Y671326D01*
X539639Y671237D01*
X539670Y671148D01*
X539705Y671062D01*
X539744Y670976D01*
X539786Y670892D01*
X539831Y670810D01*
X539879Y670730D01*
X539931Y670652D01*
X539986Y670575D01*
X540044Y670502D01*
X540104Y670430D01*
X540168Y670361D01*
X540234Y670295D01*
X540303Y670231D01*
X540375Y670171D01*
X540448Y670113D01*
X540525Y670058D01*
X540603Y670006D01*
X540683Y669958D01*
X540765Y669913D01*
X540849Y669871D01*
X540935Y669832D01*
X541021Y669797D01*
X541110Y669766D01*
X541199Y669738D01*
X541290Y669714D01*
X541381Y669693D01*
X541474Y669676D01*
X541566Y669663D01*
X541660Y669654D01*
X541753Y669648D01*
X541847Y669646D01*
X545727Y669646D01*
X545727Y678959D01*
X552533Y678959D02*
X552533Y669646D01*
X552145Y682839D02*
X552145Y683616D01*
X552921Y683616D01*
X552921Y682839D01*
X552145Y682839D01*
X559339Y678959D02*
X559339Y669646D01*
X559339Y678959D02*
X563220Y678959D01*
X563316Y678957D01*
X563412Y678951D01*
X563508Y678941D01*
X563603Y678927D01*
X563698Y678909D01*
X563791Y678888D01*
X563884Y678862D01*
X563976Y678833D01*
X564066Y678800D01*
X564155Y678763D01*
X564242Y678722D01*
X564328Y678678D01*
X564412Y678631D01*
X564493Y678580D01*
X564573Y678526D01*
X564650Y678468D01*
X564725Y678407D01*
X564797Y678344D01*
X564866Y678277D01*
X564933Y678208D01*
X564996Y678136D01*
X565057Y678061D01*
X565115Y677984D01*
X565169Y677904D01*
X565220Y677823D01*
X565267Y677739D01*
X565311Y677653D01*
X565352Y677566D01*
X565389Y677477D01*
X565422Y677387D01*
X565451Y677295D01*
X565477Y677203D01*
X565498Y677109D01*
X565516Y677014D01*
X565530Y676919D01*
X565540Y676823D01*
X565546Y676727D01*
X565548Y676631D01*
X565548Y669646D01*
X572719Y672750D02*
X572719Y675854D01*
X572721Y675965D01*
X572727Y676075D01*
X572737Y676186D01*
X572751Y676296D01*
X572768Y676405D01*
X572790Y676514D01*
X572815Y676622D01*
X572845Y676728D01*
X572878Y676834D01*
X572915Y676939D01*
X572955Y677042D01*
X573000Y677143D01*
X573047Y677243D01*
X573099Y677342D01*
X573154Y677438D01*
X573212Y677532D01*
X573273Y677624D01*
X573338Y677714D01*
X573406Y677802D01*
X573477Y677887D01*
X573551Y677969D01*
X573628Y678049D01*
X573708Y678126D01*
X573790Y678200D01*
X573875Y678271D01*
X573963Y678339D01*
X574053Y678404D01*
X574145Y678465D01*
X574239Y678523D01*
X574335Y678578D01*
X574434Y678630D01*
X574534Y678677D01*
X574635Y678722D01*
X574738Y678762D01*
X574843Y678799D01*
X574949Y678832D01*
X575055Y678862D01*
X575163Y678887D01*
X575272Y678909D01*
X575381Y678926D01*
X575491Y678940D01*
X575602Y678950D01*
X575712Y678956D01*
X575823Y678958D01*
X575934Y678956D01*
X576044Y678950D01*
X576155Y678940D01*
X576265Y678926D01*
X576374Y678909D01*
X576483Y678887D01*
X576591Y678862D01*
X576697Y678832D01*
X576803Y678799D01*
X576908Y678762D01*
X577011Y678722D01*
X577112Y678677D01*
X577212Y678630D01*
X577311Y678578D01*
X577407Y678523D01*
X577501Y678465D01*
X577593Y678404D01*
X577683Y678339D01*
X577771Y678271D01*
X577856Y678200D01*
X577938Y678126D01*
X578018Y678049D01*
X578095Y677969D01*
X578169Y677887D01*
X578240Y677802D01*
X578308Y677714D01*
X578373Y677624D01*
X578434Y677532D01*
X578492Y677438D01*
X578547Y677342D01*
X578599Y677243D01*
X578646Y677143D01*
X578691Y677042D01*
X578731Y676939D01*
X578768Y676834D01*
X578801Y676728D01*
X578831Y676622D01*
X578856Y676514D01*
X578878Y676405D01*
X578895Y676296D01*
X578909Y676186D01*
X578919Y676075D01*
X578925Y675965D01*
X578927Y675854D01*
X578927Y672750D01*
X578925Y672639D01*
X578919Y672529D01*
X578909Y672418D01*
X578895Y672308D01*
X578878Y672199D01*
X578856Y672090D01*
X578831Y671982D01*
X578801Y671876D01*
X578768Y671770D01*
X578731Y671665D01*
X578691Y671562D01*
X578646Y671461D01*
X578599Y671361D01*
X578547Y671262D01*
X578492Y671166D01*
X578434Y671072D01*
X578373Y670980D01*
X578308Y670890D01*
X578240Y670802D01*
X578169Y670717D01*
X578095Y670635D01*
X578018Y670555D01*
X577938Y670478D01*
X577856Y670404D01*
X577771Y670333D01*
X577683Y670265D01*
X577593Y670200D01*
X577501Y670139D01*
X577407Y670081D01*
X577311Y670026D01*
X577212Y669974D01*
X577112Y669927D01*
X577011Y669882D01*
X576908Y669842D01*
X576803Y669805D01*
X576697Y669772D01*
X576591Y669742D01*
X576483Y669717D01*
X576374Y669695D01*
X576265Y669678D01*
X576155Y669664D01*
X576044Y669654D01*
X575934Y669648D01*
X575823Y669646D01*
X575712Y669648D01*
X575602Y669654D01*
X575491Y669664D01*
X575381Y669678D01*
X575272Y669695D01*
X575163Y669717D01*
X575055Y669742D01*
X574949Y669772D01*
X574843Y669805D01*
X574738Y669842D01*
X574635Y669882D01*
X574534Y669927D01*
X574434Y669974D01*
X574335Y670026D01*
X574239Y670081D01*
X574145Y670139D01*
X574053Y670200D01*
X573963Y670265D01*
X573875Y670333D01*
X573790Y670404D01*
X573708Y670478D01*
X573628Y670555D01*
X573551Y670635D01*
X573477Y670717D01*
X573406Y670802D01*
X573338Y670890D01*
X573273Y670980D01*
X573212Y671072D01*
X573154Y671166D01*
X573099Y671262D01*
X573047Y671361D01*
X573000Y671461D01*
X572955Y671562D01*
X572915Y671665D01*
X572878Y671770D01*
X572845Y671876D01*
X572815Y671982D01*
X572790Y672090D01*
X572768Y672199D01*
X572751Y672308D01*
X572737Y672418D01*
X572727Y672529D01*
X572721Y672639D01*
X572719Y672750D01*
X515064Y661822D02*
X515064Y647852D01*
X522825Y647852D02*
X515064Y661822D01*
X522825Y661822D02*
X522825Y647852D01*
X532814Y653285D02*
X536307Y653285D01*
X532814Y653285D02*
X532711Y653283D01*
X532609Y653277D01*
X532506Y653268D01*
X532404Y653254D01*
X532303Y653237D01*
X532202Y653215D01*
X532103Y653190D01*
X532004Y653161D01*
X531907Y653129D01*
X531810Y653093D01*
X531716Y653053D01*
X531622Y653010D01*
X531531Y652963D01*
X531441Y652913D01*
X531353Y652859D01*
X531268Y652802D01*
X531184Y652742D01*
X531103Y652679D01*
X531025Y652612D01*
X530949Y652543D01*
X530875Y652471D01*
X530805Y652397D01*
X530737Y652319D01*
X530672Y652239D01*
X530611Y652157D01*
X530552Y652073D01*
X530497Y651986D01*
X530445Y651897D01*
X530396Y651807D01*
X530351Y651714D01*
X530310Y651620D01*
X530272Y651525D01*
X530237Y651428D01*
X530207Y651330D01*
X530180Y651230D01*
X530157Y651130D01*
X530137Y651029D01*
X530122Y650928D01*
X530110Y650826D01*
X530102Y650723D01*
X530098Y650620D01*
X530098Y650518D01*
X530102Y650415D01*
X530110Y650312D01*
X530122Y650210D01*
X530137Y650109D01*
X530157Y650008D01*
X530180Y649908D01*
X530207Y649808D01*
X530237Y649710D01*
X530272Y649613D01*
X530310Y649518D01*
X530351Y649424D01*
X530396Y649331D01*
X530445Y649241D01*
X530497Y649152D01*
X530552Y649065D01*
X530611Y648981D01*
X530672Y648899D01*
X530737Y648819D01*
X530805Y648741D01*
X530875Y648667D01*
X530949Y648595D01*
X531025Y648526D01*
X531103Y648459D01*
X531184Y648396D01*
X531268Y648336D01*
X531353Y648279D01*
X531441Y648225D01*
X531531Y648175D01*
X531622Y648128D01*
X531716Y648085D01*
X531810Y648045D01*
X531907Y648009D01*
X532004Y647977D01*
X532103Y647948D01*
X532202Y647923D01*
X532303Y647901D01*
X532404Y647884D01*
X532506Y647870D01*
X532609Y647861D01*
X532711Y647855D01*
X532814Y647853D01*
X532814Y647852D02*
X536307Y647852D01*
X536307Y654837D01*
X536306Y654837D02*
X536304Y654931D01*
X536298Y655024D01*
X536289Y655118D01*
X536276Y655210D01*
X536259Y655303D01*
X536238Y655394D01*
X536214Y655485D01*
X536186Y655574D01*
X536155Y655663D01*
X536120Y655749D01*
X536081Y655835D01*
X536039Y655919D01*
X535994Y656001D01*
X535946Y656081D01*
X535894Y656159D01*
X535839Y656236D01*
X535781Y656309D01*
X535721Y656381D01*
X535657Y656450D01*
X535591Y656516D01*
X535522Y656580D01*
X535450Y656640D01*
X535377Y656698D01*
X535300Y656753D01*
X535222Y656805D01*
X535142Y656853D01*
X535060Y656898D01*
X534976Y656940D01*
X534890Y656979D01*
X534804Y657014D01*
X534715Y657045D01*
X534626Y657073D01*
X534535Y657097D01*
X534444Y657118D01*
X534351Y657135D01*
X534259Y657148D01*
X534165Y657157D01*
X534072Y657163D01*
X533978Y657165D01*
X533978Y657166D02*
X530874Y657166D01*
X544086Y657166D02*
X544086Y647852D01*
X544086Y657166D02*
X547966Y657166D01*
X547966Y657165D02*
X548062Y657163D01*
X548158Y657157D01*
X548254Y657147D01*
X548349Y657133D01*
X548444Y657115D01*
X548537Y657094D01*
X548630Y657068D01*
X548722Y657039D01*
X548812Y657006D01*
X548901Y656969D01*
X548988Y656928D01*
X549074Y656884D01*
X549158Y656837D01*
X549239Y656786D01*
X549319Y656732D01*
X549396Y656674D01*
X549471Y656613D01*
X549543Y656550D01*
X549612Y656483D01*
X549679Y656414D01*
X549742Y656342D01*
X549803Y656267D01*
X549861Y656190D01*
X549915Y656110D01*
X549966Y656029D01*
X550013Y655945D01*
X550057Y655859D01*
X550098Y655772D01*
X550135Y655683D01*
X550168Y655593D01*
X550197Y655501D01*
X550223Y655409D01*
X550244Y655315D01*
X550262Y655220D01*
X550276Y655125D01*
X550286Y655029D01*
X550292Y654933D01*
X550294Y654837D01*
X550294Y647852D01*
X557465Y650957D02*
X557465Y654061D01*
X557467Y654172D01*
X557473Y654282D01*
X557483Y654393D01*
X557497Y654503D01*
X557514Y654612D01*
X557536Y654721D01*
X557561Y654829D01*
X557591Y654935D01*
X557624Y655041D01*
X557661Y655146D01*
X557701Y655249D01*
X557746Y655350D01*
X557793Y655450D01*
X557845Y655549D01*
X557900Y655645D01*
X557958Y655739D01*
X558019Y655831D01*
X558084Y655921D01*
X558152Y656009D01*
X558223Y656094D01*
X558297Y656176D01*
X558374Y656256D01*
X558454Y656333D01*
X558536Y656407D01*
X558621Y656478D01*
X558709Y656546D01*
X558799Y656611D01*
X558891Y656672D01*
X558985Y656730D01*
X559081Y656785D01*
X559180Y656837D01*
X559280Y656884D01*
X559381Y656929D01*
X559484Y656969D01*
X559589Y657006D01*
X559695Y657039D01*
X559801Y657069D01*
X559909Y657094D01*
X560018Y657116D01*
X560127Y657133D01*
X560237Y657147D01*
X560348Y657157D01*
X560458Y657163D01*
X560569Y657165D01*
X560680Y657163D01*
X560790Y657157D01*
X560901Y657147D01*
X561011Y657133D01*
X561120Y657116D01*
X561229Y657094D01*
X561337Y657069D01*
X561443Y657039D01*
X561549Y657006D01*
X561654Y656969D01*
X561757Y656929D01*
X561858Y656884D01*
X561958Y656837D01*
X562057Y656785D01*
X562153Y656730D01*
X562247Y656672D01*
X562339Y656611D01*
X562429Y656546D01*
X562517Y656478D01*
X562602Y656407D01*
X562684Y656333D01*
X562764Y656256D01*
X562841Y656176D01*
X562915Y656094D01*
X562986Y656009D01*
X563054Y655921D01*
X563119Y655831D01*
X563180Y655739D01*
X563238Y655645D01*
X563293Y655549D01*
X563345Y655450D01*
X563392Y655350D01*
X563437Y655249D01*
X563477Y655146D01*
X563514Y655041D01*
X563547Y654935D01*
X563577Y654829D01*
X563602Y654721D01*
X563624Y654612D01*
X563641Y654503D01*
X563655Y654393D01*
X563665Y654282D01*
X563671Y654172D01*
X563673Y654061D01*
X563674Y654061D02*
X563674Y650957D01*
X563673Y650957D02*
X563671Y650846D01*
X563665Y650736D01*
X563655Y650625D01*
X563641Y650515D01*
X563624Y650406D01*
X563602Y650297D01*
X563577Y650189D01*
X563547Y650083D01*
X563514Y649977D01*
X563477Y649872D01*
X563437Y649769D01*
X563392Y649668D01*
X563345Y649568D01*
X563293Y649469D01*
X563238Y649373D01*
X563180Y649279D01*
X563119Y649187D01*
X563054Y649097D01*
X562986Y649009D01*
X562915Y648924D01*
X562841Y648842D01*
X562764Y648762D01*
X562684Y648685D01*
X562602Y648611D01*
X562517Y648540D01*
X562429Y648472D01*
X562339Y648407D01*
X562247Y648346D01*
X562153Y648288D01*
X562057Y648233D01*
X561958Y648181D01*
X561858Y648134D01*
X561757Y648089D01*
X561654Y648049D01*
X561549Y648012D01*
X561443Y647979D01*
X561337Y647949D01*
X561229Y647924D01*
X561120Y647902D01*
X561011Y647885D01*
X560901Y647871D01*
X560790Y647861D01*
X560680Y647855D01*
X560569Y647853D01*
X560458Y647855D01*
X560348Y647861D01*
X560237Y647871D01*
X560127Y647885D01*
X560018Y647902D01*
X559909Y647924D01*
X559801Y647949D01*
X559695Y647979D01*
X559589Y648012D01*
X559484Y648049D01*
X559381Y648089D01*
X559280Y648134D01*
X559180Y648181D01*
X559081Y648233D01*
X558985Y648288D01*
X558891Y648346D01*
X558799Y648407D01*
X558709Y648472D01*
X558621Y648540D01*
X558536Y648611D01*
X558454Y648685D01*
X558374Y648762D01*
X558297Y648842D01*
X558223Y648924D01*
X558152Y649009D01*
X558084Y649097D01*
X558019Y649187D01*
X557958Y649279D01*
X557900Y649373D01*
X557845Y649469D01*
X557793Y649568D01*
X557746Y649668D01*
X557701Y649769D01*
X557661Y649872D01*
X557624Y649977D01*
X557591Y650083D01*
X557561Y650189D01*
X557536Y650297D01*
X557514Y650406D01*
X557497Y650515D01*
X557483Y650625D01*
X557473Y650736D01*
X557467Y650846D01*
X557465Y650957D01*
D11*
X819556Y123038D02*
X819668Y61106D01*
X226171Y60039D02*
X226060Y121971D01*
X226786Y79540D02*
X818983Y80604D01*
X793627Y83751D01*
X793638Y77366D01*
X818983Y80604D01*
X793630Y81859D01*
X793635Y79259D02*
X818983Y80604D01*
X793628Y83159D01*
X793637Y77959D02*
X818983Y80604D01*
X252131Y82778D02*
X226786Y79540D01*
X252142Y76393D02*
X252131Y82778D01*
X252142Y76393D02*
X226786Y79540D01*
X252134Y80886D01*
X252139Y78286D02*
X226786Y79540D01*
X252132Y82186D01*
X252141Y76986D02*
X226786Y79540D01*
D12*
X491814Y86523D02*
X497233Y86533D01*
X497232Y86533D02*
X497350Y86535D01*
X497469Y86541D01*
X497586Y86551D01*
X497704Y86565D01*
X497821Y86582D01*
X497937Y86604D01*
X498052Y86629D01*
X498167Y86658D01*
X498281Y86690D01*
X498393Y86727D01*
X498504Y86767D01*
X498614Y86810D01*
X498722Y86858D01*
X498829Y86908D01*
X498934Y86962D01*
X499037Y87020D01*
X499139Y87081D01*
X499238Y87145D01*
X499335Y87213D01*
X499430Y87283D01*
X499522Y87357D01*
X499612Y87434D01*
X499700Y87513D01*
X499785Y87595D01*
X499867Y87680D01*
X499946Y87768D01*
X500022Y87858D01*
X500095Y87951D01*
X500166Y88046D01*
X500233Y88144D01*
X500297Y88243D01*
X500357Y88344D01*
X500414Y88448D01*
X500468Y88553D01*
X500519Y88660D01*
X500565Y88769D01*
X500609Y88879D01*
X500648Y88990D01*
X500684Y89103D01*
X500717Y89216D01*
X500745Y89331D01*
X500770Y89447D01*
X500791Y89563D01*
X500808Y89680D01*
X500821Y89797D01*
X500831Y89915D01*
X500836Y90033D01*
X500838Y90151D01*
X500839Y90151D02*
X500836Y91958D01*
X500835Y91957D02*
X500833Y92075D01*
X500827Y92194D01*
X500817Y92311D01*
X500803Y92429D01*
X500786Y92546D01*
X500764Y92662D01*
X500739Y92777D01*
X500710Y92892D01*
X500678Y93006D01*
X500641Y93118D01*
X500601Y93229D01*
X500558Y93339D01*
X500510Y93447D01*
X500460Y93554D01*
X500406Y93659D01*
X500348Y93762D01*
X500287Y93864D01*
X500223Y93963D01*
X500155Y94060D01*
X500085Y94155D01*
X500011Y94247D01*
X499934Y94337D01*
X499855Y94425D01*
X499773Y94510D01*
X499688Y94592D01*
X499600Y94671D01*
X499510Y94747D01*
X499417Y94820D01*
X499322Y94891D01*
X499224Y94958D01*
X499125Y95022D01*
X499024Y95082D01*
X498920Y95139D01*
X498815Y95193D01*
X498708Y95244D01*
X498599Y95290D01*
X498489Y95334D01*
X498378Y95373D01*
X498265Y95409D01*
X498152Y95442D01*
X498037Y95470D01*
X497922Y95495D01*
X497805Y95516D01*
X497688Y95533D01*
X497571Y95546D01*
X497453Y95556D01*
X497335Y95561D01*
X497217Y95563D01*
X497217Y95564D02*
X491798Y95554D01*
X491786Y102779D01*
X500817Y102795D01*
X511045Y93782D02*
X516464Y93791D01*
X511045Y93782D02*
X510927Y93784D01*
X510809Y93789D01*
X510691Y93799D01*
X510574Y93812D01*
X510457Y93829D01*
X510341Y93850D01*
X510225Y93875D01*
X510110Y93903D01*
X509997Y93936D01*
X509884Y93972D01*
X509773Y94011D01*
X509663Y94055D01*
X509554Y94101D01*
X509447Y94152D01*
X509342Y94206D01*
X509238Y94263D01*
X509137Y94323D01*
X509038Y94387D01*
X508940Y94454D01*
X508845Y94525D01*
X508752Y94598D01*
X508662Y94674D01*
X508574Y94753D01*
X508489Y94835D01*
X508407Y94920D01*
X508328Y95008D01*
X508251Y95098D01*
X508177Y95190D01*
X508107Y95285D01*
X508039Y95382D01*
X507975Y95481D01*
X507914Y95583D01*
X507856Y95686D01*
X507802Y95791D01*
X507752Y95898D01*
X507704Y96006D01*
X507661Y96116D01*
X507621Y96227D01*
X507584Y96339D01*
X507552Y96453D01*
X507523Y96568D01*
X507498Y96683D01*
X507476Y96799D01*
X507459Y96916D01*
X507445Y97034D01*
X507435Y97151D01*
X507429Y97270D01*
X507427Y97388D01*
X507426Y97388D02*
X507425Y98291D01*
X507424Y98291D02*
X507426Y98425D01*
X507431Y98559D01*
X507441Y98692D01*
X507455Y98825D01*
X507472Y98958D01*
X507494Y99090D01*
X507519Y99222D01*
X507549Y99352D01*
X507582Y99482D01*
X507619Y99610D01*
X507659Y99738D01*
X507704Y99864D01*
X507752Y99989D01*
X507804Y100112D01*
X507860Y100234D01*
X507919Y100354D01*
X507981Y100472D01*
X508048Y100589D01*
X508117Y100703D01*
X508190Y100815D01*
X508266Y100925D01*
X508346Y101033D01*
X508428Y101138D01*
X508514Y101241D01*
X508603Y101341D01*
X508694Y101439D01*
X508789Y101534D01*
X508886Y101626D01*
X508986Y101715D01*
X509088Y101801D01*
X509193Y101884D01*
X509301Y101964D01*
X509411Y102040D01*
X509523Y102114D01*
X509637Y102183D01*
X509753Y102250D01*
X509871Y102313D01*
X509991Y102373D01*
X510112Y102429D01*
X510235Y102481D01*
X510360Y102530D01*
X510486Y102575D01*
X510614Y102616D01*
X510742Y102653D01*
X510872Y102687D01*
X511002Y102717D01*
X511133Y102742D01*
X511265Y102764D01*
X511398Y102782D01*
X511531Y102796D01*
X511665Y102807D01*
X511798Y102813D01*
X511932Y102815D01*
X512066Y102813D01*
X512200Y102808D01*
X512333Y102798D01*
X512466Y102784D01*
X512599Y102767D01*
X512731Y102745D01*
X512862Y102720D01*
X512993Y102691D01*
X513123Y102657D01*
X513251Y102620D01*
X513379Y102580D01*
X513505Y102535D01*
X513630Y102487D01*
X513753Y102435D01*
X513875Y102379D01*
X513995Y102320D01*
X514113Y102258D01*
X514230Y102191D01*
X514344Y102122D01*
X514456Y102049D01*
X514566Y101973D01*
X514674Y101893D01*
X514779Y101811D01*
X514882Y101725D01*
X514982Y101636D01*
X515080Y101545D01*
X515175Y101450D01*
X515267Y101353D01*
X515356Y101253D01*
X515442Y101151D01*
X515525Y101046D01*
X515605Y100938D01*
X515681Y100828D01*
X515754Y100716D01*
X515824Y100602D01*
X515891Y100486D01*
X515954Y100368D01*
X516014Y100248D01*
X516070Y100127D01*
X516122Y100004D01*
X516171Y99879D01*
X516216Y99753D01*
X516257Y99626D01*
X516294Y99497D01*
X516328Y99367D01*
X516358Y99237D01*
X516383Y99106D01*
X516405Y98974D01*
X516423Y98841D01*
X516437Y98708D01*
X516448Y98574D01*
X516454Y98441D01*
X516456Y98307D01*
X516464Y93791D01*
X516464Y93792D02*
X516462Y93617D01*
X516456Y93443D01*
X516446Y93268D01*
X516431Y93094D01*
X516413Y92921D01*
X516390Y92748D01*
X516363Y92575D01*
X516332Y92403D01*
X516297Y92232D01*
X516257Y92062D01*
X516214Y91893D01*
X516166Y91725D01*
X516114Y91558D01*
X516059Y91393D01*
X515999Y91229D01*
X515935Y91066D01*
X515868Y90905D01*
X515796Y90746D01*
X515721Y90588D01*
X515642Y90433D01*
X515560Y90279D01*
X515473Y90127D01*
X515383Y89978D01*
X515289Y89830D01*
X515192Y89685D01*
X515092Y89542D01*
X514987Y89402D01*
X514880Y89265D01*
X514769Y89130D01*
X514655Y88997D01*
X514538Y88868D01*
X514418Y88741D01*
X514295Y88618D01*
X514169Y88497D01*
X514040Y88379D01*
X513908Y88265D01*
X513773Y88154D01*
X513636Y88046D01*
X513496Y87941D01*
X513354Y87840D01*
X513209Y87742D01*
X513062Y87648D01*
X512913Y87558D01*
X512761Y87471D01*
X512608Y87387D01*
X512452Y87308D01*
X512295Y87232D01*
X512136Y87160D01*
X511975Y87092D01*
X511813Y87028D01*
X511649Y86968D01*
X511484Y86912D01*
X511317Y86859D01*
X511149Y86811D01*
X510980Y86767D01*
X510810Y86727D01*
X510639Y86691D01*
X510468Y86659D01*
X510295Y86632D01*
X510122Y86608D01*
X509949Y86589D01*
X509775Y86574D01*
X509601Y86563D01*
X509426Y86556D01*
X509252Y86554D01*
X522451Y86577D02*
X522449Y87480D01*
X523353Y87481D01*
X523354Y86578D01*
X522451Y86577D01*
X529329Y86589D02*
X533844Y86597D01*
X533844Y86596D02*
X533976Y86598D01*
X534109Y86604D01*
X534241Y86614D01*
X534373Y86628D01*
X534504Y86646D01*
X534635Y86667D01*
X534765Y86693D01*
X534895Y86722D01*
X535023Y86755D01*
X535150Y86792D01*
X535277Y86832D01*
X535402Y86876D01*
X535525Y86924D01*
X535648Y86975D01*
X535768Y87030D01*
X535887Y87089D01*
X536005Y87151D01*
X536120Y87216D01*
X536233Y87285D01*
X536345Y87357D01*
X536454Y87432D01*
X536561Y87511D01*
X536665Y87592D01*
X536767Y87677D01*
X536867Y87764D01*
X536964Y87855D01*
X537058Y87948D01*
X537150Y88044D01*
X537238Y88142D01*
X537324Y88244D01*
X537407Y88347D01*
X537486Y88453D01*
X537563Y88562D01*
X537636Y88672D01*
X537706Y88785D01*
X537773Y88899D01*
X537836Y89016D01*
X537896Y89134D01*
X537952Y89254D01*
X538005Y89376D01*
X538054Y89499D01*
X538100Y89623D01*
X538141Y89749D01*
X538180Y89876D01*
X538214Y90004D01*
X538245Y90133D01*
X538271Y90263D01*
X538295Y90394D01*
X538314Y90525D01*
X538329Y90657D01*
X538340Y90789D01*
X538348Y90921D01*
X538352Y91054D01*
X538351Y91186D01*
X538347Y91319D01*
X538339Y91451D01*
X538327Y91583D01*
X538312Y91715D01*
X538292Y91846D01*
X538269Y91976D01*
X538241Y92106D01*
X538210Y92235D01*
X538175Y92363D01*
X538137Y92490D01*
X538094Y92615D01*
X538048Y92740D01*
X537999Y92863D01*
X537946Y92984D01*
X537889Y93104D01*
X537829Y93222D01*
X537765Y93338D01*
X537698Y93453D01*
X537628Y93565D01*
X537554Y93675D01*
X537477Y93784D01*
X537397Y93889D01*
X537314Y93993D01*
X537228Y94093D01*
X537139Y94192D01*
X537047Y94287D01*
X536953Y94380D01*
X536855Y94470D01*
X536755Y94558D01*
X536653Y94642D01*
X536548Y94723D01*
X536441Y94801D01*
X536332Y94876D01*
X536220Y94948D01*
X536106Y95016D01*
X535991Y95081D01*
X535873Y95142D01*
X535754Y95200D01*
X535633Y95255D01*
X535511Y95306D01*
X535387Y95353D01*
X535262Y95397D01*
X535135Y95437D01*
X535008Y95473D01*
X534879Y95506D01*
X534750Y95535D01*
X534620Y95559D01*
X534489Y95581D01*
X534357Y95598D01*
X534225Y95611D01*
X534093Y95621D01*
X533961Y95626D01*
X533828Y95628D01*
X534719Y102854D02*
X529300Y102845D01*
X534719Y102854D02*
X534838Y102852D01*
X534957Y102847D01*
X535077Y102837D01*
X535195Y102823D01*
X535313Y102806D01*
X535431Y102784D01*
X535548Y102759D01*
X535663Y102730D01*
X535778Y102697D01*
X535892Y102660D01*
X536004Y102620D01*
X536115Y102576D01*
X536225Y102528D01*
X536333Y102477D01*
X536439Y102422D01*
X536543Y102363D01*
X536645Y102301D01*
X536745Y102236D01*
X536843Y102168D01*
X536939Y102096D01*
X537032Y102021D01*
X537122Y101944D01*
X537210Y101863D01*
X537296Y101779D01*
X537378Y101693D01*
X537458Y101604D01*
X537534Y101512D01*
X537608Y101418D01*
X537678Y101322D01*
X537745Y101223D01*
X537809Y101122D01*
X537870Y101019D01*
X537927Y100914D01*
X537980Y100807D01*
X538030Y100699D01*
X538077Y100589D01*
X538119Y100477D01*
X538158Y100364D01*
X538193Y100250D01*
X538225Y100135D01*
X538253Y100019D01*
X538276Y99902D01*
X538296Y99784D01*
X538312Y99665D01*
X538324Y99547D01*
X538332Y99427D01*
X538336Y99308D01*
X538337Y99189D01*
X538333Y99069D01*
X538325Y98950D01*
X538314Y98831D01*
X538298Y98713D01*
X538279Y98595D01*
X538255Y98478D01*
X538228Y98361D01*
X538197Y98246D01*
X538162Y98132D01*
X538124Y98019D01*
X538081Y97907D01*
X538035Y97797D01*
X537986Y97688D01*
X537933Y97581D01*
X537876Y97476D01*
X537816Y97373D01*
X537752Y97272D01*
X537686Y97173D01*
X537615Y97076D01*
X537542Y96982D01*
X537466Y96890D01*
X537387Y96800D01*
X537305Y96714D01*
X537220Y96630D01*
X537132Y96549D01*
X537041Y96471D01*
X536949Y96396D01*
X536853Y96324D01*
X536756Y96255D01*
X536656Y96189D01*
X536554Y96127D01*
X536450Y96068D01*
X536344Y96013D01*
X536236Y95961D01*
X536127Y95913D01*
X536016Y95869D01*
X535904Y95828D01*
X535790Y95791D01*
X535676Y95757D01*
X535560Y95728D01*
X535443Y95702D01*
X535326Y95680D01*
X535208Y95662D01*
X535089Y95648D01*
X534970Y95638D01*
X534851Y95632D01*
X534731Y95630D01*
X534732Y95629D02*
X531119Y95623D01*
X544960Y86616D02*
X550379Y86625D01*
X550378Y86626D02*
X550496Y86628D01*
X550615Y86634D01*
X550732Y86644D01*
X550850Y86658D01*
X550967Y86675D01*
X551083Y86697D01*
X551198Y86722D01*
X551313Y86751D01*
X551427Y86783D01*
X551539Y86820D01*
X551650Y86860D01*
X551760Y86903D01*
X551868Y86951D01*
X551975Y87001D01*
X552080Y87055D01*
X552183Y87113D01*
X552285Y87174D01*
X552384Y87238D01*
X552481Y87306D01*
X552576Y87376D01*
X552668Y87450D01*
X552758Y87527D01*
X552846Y87606D01*
X552931Y87688D01*
X553013Y87773D01*
X553092Y87861D01*
X553168Y87951D01*
X553241Y88044D01*
X553312Y88139D01*
X553379Y88237D01*
X553443Y88336D01*
X553503Y88437D01*
X553560Y88541D01*
X553614Y88646D01*
X553665Y88753D01*
X553711Y88862D01*
X553755Y88972D01*
X553794Y89083D01*
X553830Y89196D01*
X553863Y89309D01*
X553891Y89424D01*
X553916Y89540D01*
X553937Y89656D01*
X553954Y89773D01*
X553967Y89890D01*
X553977Y90008D01*
X553982Y90126D01*
X553984Y90244D01*
X553985Y90244D02*
X553982Y92050D01*
X553981Y92050D02*
X553979Y92168D01*
X553973Y92287D01*
X553963Y92404D01*
X553949Y92522D01*
X553932Y92639D01*
X553910Y92755D01*
X553885Y92870D01*
X553856Y92985D01*
X553824Y93099D01*
X553787Y93211D01*
X553747Y93322D01*
X553704Y93432D01*
X553656Y93540D01*
X553606Y93647D01*
X553552Y93752D01*
X553494Y93855D01*
X553433Y93957D01*
X553369Y94056D01*
X553301Y94153D01*
X553231Y94248D01*
X553157Y94340D01*
X553080Y94430D01*
X553001Y94518D01*
X552919Y94603D01*
X552834Y94685D01*
X552746Y94764D01*
X552656Y94840D01*
X552563Y94913D01*
X552468Y94984D01*
X552370Y95051D01*
X552271Y95115D01*
X552170Y95175D01*
X552066Y95232D01*
X551961Y95286D01*
X551854Y95337D01*
X551745Y95383D01*
X551635Y95427D01*
X551524Y95466D01*
X551411Y95502D01*
X551298Y95535D01*
X551183Y95563D01*
X551068Y95588D01*
X550951Y95609D01*
X550834Y95626D01*
X550717Y95639D01*
X550599Y95649D01*
X550481Y95654D01*
X550363Y95656D01*
X544944Y95647D01*
X544932Y102872D01*
X553963Y102888D01*
D11*
X191973Y150266D02*
X148953Y150266D01*
X148953Y743966D02*
X191973Y743966D01*
X168453Y743316D02*
X168453Y150916D01*
X165260Y176266D01*
X171645Y176266D01*
X168453Y150916D01*
X167153Y176266D01*
X169753Y176266D02*
X168453Y150916D01*
X165853Y176266D01*
X171053Y176266D02*
X168453Y150916D01*
X165260Y717966D02*
X168453Y743316D01*
X165260Y717966D02*
X171645Y717966D01*
X168453Y743316D01*
X167153Y717966D01*
X169753Y717966D02*
X168453Y743316D01*
X165853Y717966D01*
X171053Y717966D02*
X168453Y743316D01*
D12*
X161946Y421476D02*
X161946Y416057D01*
X161945Y421476D02*
X161943Y421594D01*
X161937Y421712D01*
X161928Y421830D01*
X161914Y421947D01*
X161897Y422064D01*
X161876Y422181D01*
X161851Y422296D01*
X161822Y422411D01*
X161789Y422525D01*
X161753Y422637D01*
X161713Y422748D01*
X161670Y422858D01*
X161623Y422967D01*
X161573Y423074D01*
X161518Y423179D01*
X161461Y423282D01*
X161400Y423383D01*
X161336Y423483D01*
X161269Y423580D01*
X161199Y423675D01*
X161125Y423767D01*
X161049Y423858D01*
X160969Y423945D01*
X160887Y424030D01*
X160802Y424112D01*
X160715Y424192D01*
X160624Y424268D01*
X160532Y424342D01*
X160437Y424412D01*
X160340Y424479D01*
X160240Y424543D01*
X160139Y424604D01*
X160036Y424661D01*
X159931Y424716D01*
X159824Y424766D01*
X159715Y424813D01*
X159605Y424856D01*
X159494Y424896D01*
X159382Y424932D01*
X159268Y424965D01*
X159153Y424994D01*
X159038Y425019D01*
X158921Y425040D01*
X158804Y425057D01*
X158687Y425071D01*
X158569Y425080D01*
X158451Y425086D01*
X158333Y425088D01*
X158333Y425089D02*
X156527Y425089D01*
X156527Y425088D02*
X156409Y425086D01*
X156291Y425080D01*
X156173Y425071D01*
X156056Y425057D01*
X155939Y425040D01*
X155822Y425019D01*
X155707Y424994D01*
X155592Y424965D01*
X155478Y424932D01*
X155366Y424896D01*
X155255Y424856D01*
X155145Y424813D01*
X155036Y424766D01*
X154929Y424716D01*
X154824Y424661D01*
X154721Y424604D01*
X154620Y424543D01*
X154520Y424479D01*
X154423Y424412D01*
X154328Y424342D01*
X154236Y424268D01*
X154145Y424192D01*
X154058Y424112D01*
X153973Y424030D01*
X153891Y423945D01*
X153811Y423858D01*
X153735Y423767D01*
X153661Y423675D01*
X153591Y423580D01*
X153524Y423483D01*
X153460Y423383D01*
X153399Y423282D01*
X153342Y423179D01*
X153287Y423074D01*
X153237Y422967D01*
X153190Y422858D01*
X153147Y422748D01*
X153107Y422637D01*
X153071Y422525D01*
X153038Y422411D01*
X153009Y422296D01*
X152984Y422181D01*
X152963Y422064D01*
X152946Y421947D01*
X152932Y421830D01*
X152923Y421712D01*
X152917Y421594D01*
X152915Y421476D01*
X152915Y416057D01*
X145690Y416057D01*
X145690Y425089D01*
X154721Y435301D02*
X154721Y440720D01*
X154721Y435301D02*
X154719Y435183D01*
X154713Y435065D01*
X154704Y434947D01*
X154690Y434830D01*
X154673Y434713D01*
X154652Y434596D01*
X154627Y434481D01*
X154598Y434366D01*
X154565Y434252D01*
X154529Y434140D01*
X154489Y434029D01*
X154446Y433919D01*
X154399Y433810D01*
X154349Y433703D01*
X154294Y433598D01*
X154237Y433495D01*
X154176Y433394D01*
X154112Y433294D01*
X154045Y433197D01*
X153975Y433102D01*
X153901Y433010D01*
X153825Y432919D01*
X153745Y432832D01*
X153663Y432747D01*
X153578Y432665D01*
X153491Y432585D01*
X153400Y432509D01*
X153308Y432435D01*
X153213Y432365D01*
X153116Y432298D01*
X153016Y432234D01*
X152915Y432173D01*
X152812Y432116D01*
X152707Y432061D01*
X152600Y432011D01*
X152491Y431964D01*
X152381Y431921D01*
X152270Y431881D01*
X152158Y431845D01*
X152044Y431812D01*
X151929Y431783D01*
X151814Y431758D01*
X151697Y431737D01*
X151580Y431720D01*
X151463Y431706D01*
X151345Y431697D01*
X151227Y431691D01*
X151109Y431689D01*
X150205Y431689D01*
X150205Y431688D02*
X150072Y431690D01*
X149940Y431696D01*
X149808Y431706D01*
X149676Y431719D01*
X149544Y431737D01*
X149414Y431758D01*
X149283Y431783D01*
X149154Y431812D01*
X149026Y431845D01*
X148898Y431881D01*
X148772Y431921D01*
X148647Y431965D01*
X148523Y432013D01*
X148401Y432064D01*
X148280Y432119D01*
X148161Y432177D01*
X148043Y432239D01*
X147928Y432304D01*
X147814Y432373D01*
X147703Y432444D01*
X147594Y432520D01*
X147487Y432598D01*
X147382Y432679D01*
X147280Y432764D01*
X147180Y432851D01*
X147083Y432941D01*
X146988Y433034D01*
X146897Y433130D01*
X146808Y433228D01*
X146722Y433329D01*
X146639Y433433D01*
X146559Y433539D01*
X146483Y433647D01*
X146409Y433757D01*
X146339Y433870D01*
X146272Y433984D01*
X146209Y434101D01*
X146149Y434219D01*
X146092Y434339D01*
X146039Y434461D01*
X145990Y434584D01*
X145944Y434708D01*
X145902Y434834D01*
X145864Y434961D01*
X145829Y435089D01*
X145798Y435218D01*
X145771Y435347D01*
X145748Y435478D01*
X145728Y435609D01*
X145713Y435741D01*
X145701Y435873D01*
X145693Y436005D01*
X145689Y436138D01*
X145689Y436270D01*
X145693Y436403D01*
X145701Y436535D01*
X145713Y436667D01*
X145728Y436799D01*
X145748Y436930D01*
X145771Y437061D01*
X145798Y437190D01*
X145829Y437319D01*
X145864Y437447D01*
X145902Y437574D01*
X145944Y437700D01*
X145990Y437824D01*
X146039Y437947D01*
X146092Y438069D01*
X146149Y438189D01*
X146209Y438307D01*
X146272Y438424D01*
X146339Y438538D01*
X146409Y438651D01*
X146483Y438761D01*
X146559Y438869D01*
X146639Y438975D01*
X146722Y439079D01*
X146808Y439180D01*
X146897Y439278D01*
X146988Y439374D01*
X147083Y439467D01*
X147180Y439557D01*
X147280Y439644D01*
X147382Y439729D01*
X147487Y439810D01*
X147594Y439888D01*
X147703Y439964D01*
X147814Y440035D01*
X147928Y440104D01*
X148043Y440169D01*
X148161Y440231D01*
X148280Y440289D01*
X148401Y440344D01*
X148523Y440395D01*
X148647Y440443D01*
X148772Y440487D01*
X148898Y440527D01*
X149026Y440563D01*
X149154Y440596D01*
X149283Y440625D01*
X149414Y440650D01*
X149544Y440671D01*
X149676Y440689D01*
X149808Y440702D01*
X149940Y440712D01*
X150072Y440718D01*
X150205Y440720D01*
X154721Y440720D01*
X154896Y440718D01*
X155070Y440712D01*
X155244Y440701D01*
X155418Y440686D01*
X155592Y440667D01*
X155765Y440644D01*
X155937Y440617D01*
X156109Y440585D01*
X156280Y440550D01*
X156450Y440510D01*
X156619Y440466D01*
X156787Y440418D01*
X156954Y440366D01*
X157119Y440310D01*
X157283Y440250D01*
X157446Y440187D01*
X157606Y440119D01*
X157766Y440047D01*
X157923Y439972D01*
X158079Y439892D01*
X158232Y439809D01*
X158384Y439723D01*
X158533Y439632D01*
X158680Y439538D01*
X158825Y439441D01*
X158968Y439340D01*
X159108Y439236D01*
X159245Y439128D01*
X159380Y439017D01*
X159512Y438903D01*
X159641Y438786D01*
X159768Y438665D01*
X159891Y438542D01*
X160012Y438415D01*
X160129Y438286D01*
X160243Y438154D01*
X160354Y438019D01*
X160462Y437882D01*
X160566Y437742D01*
X160667Y437599D01*
X160764Y437454D01*
X160858Y437307D01*
X160949Y437158D01*
X161035Y437006D01*
X161118Y436853D01*
X161198Y436697D01*
X161273Y436540D01*
X161345Y436380D01*
X161413Y436220D01*
X161476Y436057D01*
X161536Y435893D01*
X161592Y435728D01*
X161644Y435561D01*
X161692Y435393D01*
X161736Y435224D01*
X161776Y435054D01*
X161811Y434883D01*
X161843Y434711D01*
X161870Y434539D01*
X161893Y434366D01*
X161912Y434192D01*
X161927Y434018D01*
X161938Y433844D01*
X161944Y433670D01*
X161946Y433495D01*
X161946Y446695D02*
X161043Y446695D01*
X161043Y447598D01*
X161946Y447598D01*
X161946Y446695D01*
X161946Y453572D02*
X161946Y458088D01*
X161944Y458221D01*
X161938Y458353D01*
X161928Y458485D01*
X161915Y458617D01*
X161897Y458749D01*
X161876Y458879D01*
X161851Y459010D01*
X161822Y459139D01*
X161789Y459267D01*
X161753Y459395D01*
X161713Y459521D01*
X161669Y459646D01*
X161621Y459770D01*
X161570Y459892D01*
X161515Y460013D01*
X161457Y460132D01*
X161395Y460250D01*
X161330Y460365D01*
X161261Y460479D01*
X161190Y460590D01*
X161114Y460699D01*
X161036Y460806D01*
X160955Y460911D01*
X160870Y461013D01*
X160783Y461113D01*
X160693Y461210D01*
X160600Y461305D01*
X160504Y461396D01*
X160406Y461485D01*
X160305Y461571D01*
X160201Y461654D01*
X160095Y461734D01*
X159987Y461810D01*
X159877Y461884D01*
X159764Y461954D01*
X159650Y462021D01*
X159533Y462084D01*
X159415Y462144D01*
X159295Y462201D01*
X159173Y462254D01*
X159050Y462303D01*
X158926Y462349D01*
X158800Y462391D01*
X158673Y462429D01*
X158545Y462464D01*
X158416Y462495D01*
X158287Y462522D01*
X158156Y462545D01*
X158025Y462565D01*
X157893Y462580D01*
X157761Y462592D01*
X157629Y462600D01*
X157496Y462604D01*
X157364Y462604D01*
X157231Y462600D01*
X157099Y462592D01*
X156967Y462580D01*
X156835Y462565D01*
X156704Y462545D01*
X156573Y462522D01*
X156444Y462495D01*
X156315Y462464D01*
X156187Y462429D01*
X156060Y462391D01*
X155934Y462349D01*
X155810Y462303D01*
X155687Y462254D01*
X155565Y462201D01*
X155445Y462144D01*
X155327Y462084D01*
X155210Y462021D01*
X155096Y461954D01*
X154983Y461884D01*
X154873Y461810D01*
X154765Y461734D01*
X154659Y461654D01*
X154555Y461571D01*
X154454Y461485D01*
X154356Y461396D01*
X154260Y461305D01*
X154167Y461210D01*
X154077Y461113D01*
X153990Y461013D01*
X153905Y460911D01*
X153824Y460806D01*
X153746Y460699D01*
X153670Y460590D01*
X153599Y460479D01*
X153530Y460365D01*
X153465Y460250D01*
X153403Y460132D01*
X153345Y460013D01*
X153290Y459892D01*
X153239Y459770D01*
X153191Y459646D01*
X153147Y459521D01*
X153107Y459395D01*
X153071Y459267D01*
X153038Y459139D01*
X153009Y459010D01*
X152984Y458879D01*
X152963Y458749D01*
X152945Y458617D01*
X152932Y458485D01*
X152922Y458353D01*
X152916Y458221D01*
X152914Y458088D01*
X145690Y458991D02*
X145690Y453572D01*
X145690Y458991D02*
X145692Y459110D01*
X145698Y459230D01*
X145708Y459349D01*
X145722Y459467D01*
X145739Y459586D01*
X145761Y459703D01*
X145786Y459820D01*
X145816Y459935D01*
X145849Y460050D01*
X145886Y460164D01*
X145926Y460276D01*
X145971Y460387D01*
X146019Y460496D01*
X146070Y460604D01*
X146125Y460710D01*
X146184Y460814D01*
X146246Y460916D01*
X146311Y461016D01*
X146380Y461114D01*
X146452Y461210D01*
X146527Y461303D01*
X146604Y461393D01*
X146685Y461481D01*
X146769Y461566D01*
X146856Y461648D01*
X146945Y461728D01*
X147037Y461804D01*
X147131Y461878D01*
X147228Y461948D01*
X147326Y462015D01*
X147427Y462079D01*
X147531Y462139D01*
X147636Y462196D01*
X147743Y462249D01*
X147851Y462299D01*
X147961Y462345D01*
X148073Y462387D01*
X148186Y462426D01*
X148300Y462461D01*
X148415Y462492D01*
X148532Y462520D01*
X148649Y462543D01*
X148766Y462563D01*
X148885Y462579D01*
X149004Y462591D01*
X149123Y462599D01*
X149242Y462603D01*
X149362Y462603D01*
X149481Y462599D01*
X149600Y462591D01*
X149719Y462579D01*
X149838Y462563D01*
X149955Y462543D01*
X150072Y462520D01*
X150189Y462492D01*
X150304Y462461D01*
X150418Y462426D01*
X150531Y462387D01*
X150643Y462345D01*
X150753Y462299D01*
X150861Y462249D01*
X150968Y462196D01*
X151073Y462139D01*
X151177Y462079D01*
X151278Y462015D01*
X151376Y461948D01*
X151473Y461878D01*
X151567Y461804D01*
X151659Y461728D01*
X151748Y461648D01*
X151835Y461566D01*
X151919Y461481D01*
X152000Y461393D01*
X152077Y461303D01*
X152152Y461210D01*
X152224Y461114D01*
X152293Y461016D01*
X152358Y460916D01*
X152420Y460814D01*
X152479Y460710D01*
X152534Y460604D01*
X152585Y460496D01*
X152633Y460387D01*
X152678Y460276D01*
X152718Y460164D01*
X152755Y460050D01*
X152788Y459935D01*
X152818Y459820D01*
X152843Y459703D01*
X152865Y459586D01*
X152882Y459467D01*
X152896Y459349D01*
X152906Y459230D01*
X152912Y459110D01*
X152914Y458991D01*
X152915Y458991D02*
X152915Y455379D01*
X147496Y469204D02*
X145690Y469204D01*
X145690Y478235D01*
X161946Y473719D01*
D13*
X686562Y373888D03*
D14*
X661162Y373888D03*
D13*
X711962Y373888D03*
X737362Y373888D03*
X762762Y373888D03*
X788162Y373888D03*
D15*
X367030Y282194D03*
X367030Y307594D03*
D16*
X685892Y318156D02*
X700972Y318156D01*
X750892Y318156D02*
X765972Y318156D01*
X700972Y273156D02*
X685892Y273156D01*
X750892Y273156D02*
X765972Y273156D01*
D17*
X696976Y623316D03*
X696976Y521716D03*
D15*
X748284Y520700D03*
X748284Y622300D03*
X561848Y344932D03*
X561848Y446532D03*
X273304Y282194D03*
X273304Y307594D03*
X521716Y370332D03*
X521716Y471932D03*
D16*
X686400Y228748D02*
X701480Y228748D01*
X751400Y228748D02*
X766480Y228748D01*
X701480Y183748D02*
X686400Y183748D01*
X751400Y183748D02*
X766480Y183748D01*
D18*
X416306Y695452D03*
X257556Y695452D03*
X416306Y479552D03*
X257556Y479552D03*
D19*
X385732Y369288D03*
D20*
X405732Y369288D03*
X385732Y389288D03*
X405732Y389288D03*
X385732Y409288D03*
X405732Y409288D03*
X385732Y429288D03*
X405732Y429288D03*
D13*
X290322Y370840D03*
X290322Y420840D03*
D21*
X339471Y211455D02*
X339471Y194691D01*
X301371Y194691D02*
X301371Y211455D01*
X263271Y211455D02*
X263271Y194691D01*
D22*
X466852Y679831D03*
D23*
X466852Y654431D03*
X466852Y629031D03*
X466852Y603631D03*
X466852Y578231D03*
X466852Y552831D03*
X466852Y527431D03*
X466852Y502031D03*
X466852Y476631D03*
X466852Y451231D03*
X466852Y425831D03*
X466852Y400431D03*
X466852Y375031D03*
X466852Y349631D03*
X466852Y324231D03*
X619252Y679831D03*
X619252Y654431D03*
X619252Y629031D03*
X619252Y603631D03*
X619252Y578231D03*
X619252Y552831D03*
X619252Y527431D03*
X619252Y502031D03*
X619252Y476631D03*
X619252Y451231D03*
X619252Y425831D03*
X619252Y400431D03*
X619252Y375031D03*
X619252Y349631D03*
X619252Y324231D03*
D24*
X693940Y228748D03*
D25*
X696976Y521716D02*
X696976Y560451D01*
X721741Y585216D02*
X721741Y639699D01*
X707009Y654431D01*
X619252Y654431D01*
X696976Y560451D02*
X721741Y585216D01*
X711962Y393040D02*
X711962Y373888D01*
X711962Y393040D02*
X726440Y407518D01*
X749554Y407518D01*
X750062Y407010D01*
D26*
X750062Y407010D03*
X658266Y705206D03*
D25*
X648194Y705206D01*
X627721Y725678D01*
X507746Y725678D01*
X487299Y705231D01*
X487299Y427050D02*
X488848Y425501D01*
X487299Y427050D02*
X487299Y705231D01*
X488848Y425501D02*
X486766Y423418D01*
D26*
X486766Y423418D03*
D25*
X748284Y519049D02*
X748284Y520700D01*
X748284Y519049D02*
X713740Y484505D01*
X714058Y484188D01*
D24*
X714058Y484188D03*
X679069Y428117D03*
D25*
X662559Y428117D01*
X639064Y404622D01*
X639699Y307300D02*
X639699Y290362D01*
X545040Y239601D02*
X538847Y245793D01*
X639064Y307935D02*
X639064Y404622D01*
X639064Y307935D02*
X639699Y307300D01*
X639699Y290362D02*
X588938Y239601D01*
X545040Y239601D01*
X538847Y245793D02*
X538847Y299988D01*
X536194Y302641D01*
X537909Y304356D01*
D24*
X537909Y304356D03*
D25*
X644885Y273156D02*
X693432Y273156D01*
X524383Y288544D02*
X524383Y243205D01*
D27*
X524383Y288544D03*
D25*
X600075Y228346D02*
X644885Y273156D01*
X600075Y228346D02*
X539242Y228346D01*
X524383Y243205D01*
X257556Y479552D02*
X381635Y603631D01*
X466852Y603631D01*
X257556Y479552D02*
X257556Y403606D01*
X290322Y370840D01*
X290322Y420840D02*
X349034Y479552D01*
X416306Y479552D01*
X290322Y420840D02*
X290322Y387969D01*
X302434Y375857D01*
X302434Y242236D01*
X263271Y203073D01*
X301371Y203073D02*
X348361Y250063D01*
X616216Y679831D02*
X619252Y679831D01*
X616216Y679831D02*
X599059Y662674D01*
X599059Y310856D02*
X598805Y310602D01*
X598805Y268859D01*
X599059Y310856D02*
X599059Y662674D01*
X468884Y250063D02*
X348361Y250063D01*
X468884Y250063D02*
X469392Y249555D01*
D27*
X469392Y249555D03*
X549021Y248423D03*
D25*
X578369Y248423D01*
X598805Y268859D01*
X762762Y373888D02*
X762762Y418846D01*
X681482Y500126D02*
X681482Y564134D01*
X641985Y603631D01*
X619252Y603631D01*
X681482Y500126D02*
X762762Y418846D01*
D24*
X414401Y218948D03*
D25*
X433578Y199771D01*
X492506Y199771D01*
X501142Y208407D01*
X501142Y318897D01*
X527177Y344932D01*
X561848Y344932D01*
D24*
X359664Y234569D03*
D25*
X431673Y234569D01*
X456946Y209296D02*
X477647Y209296D01*
X489077Y220726D01*
X489077Y354584D01*
X504825Y370332D02*
X521716Y370332D01*
X504825Y370332D02*
X489077Y354584D01*
X431673Y234569D02*
X456946Y209296D01*
D27*
X512191Y203835D03*
D25*
X566477Y333756D02*
X573024Y340303D01*
X573024Y367919D02*
X574040Y368935D01*
X573024Y367919D02*
X573024Y340303D01*
X512191Y293589D02*
X512191Y203835D01*
X512191Y293589D02*
X552358Y333756D01*
X566477Y333756D01*
X542544Y400431D02*
X466852Y400431D01*
X542544Y400431D02*
X574040Y368935D01*
D26*
X290068Y370840D03*
X290449Y420624D03*
M02*
