G04 EAGLE Gerber RS-274X export*
G75*
%MOMM*%
%FSLAX34Y34*%
%LPD*%
%INBottom Copper*%
%IPPOS*%
%AMOC8*
5,1,8,0,0,1.08239X$1,22.5*%
G01*
%ADD10C,1.508000*%
%ADD11R,1.508000X1.508000*%
%ADD12P,1.429621X8X112.500000*%
%ADD13C,1.508000*%
%ADD14P,1.429621X8X292.500000*%
%ADD15R,3.000000X3.000000*%
%ADD16R,1.219200X1.219200*%
%ADD17C,1.219200*%
%ADD18C,1.676400*%
%ADD19R,1.778000X1.778000*%
%ADD20C,1.778000*%
%ADD21C,0.406400*%
%ADD22C,1.200000*%
%ADD23C,1.300000*%
%ADD24C,0.381000*%
%ADD25C,0.850000*%


D10*
X686562Y373888D03*
D11*
X661162Y373888D03*
D10*
X711962Y373888D03*
X737362Y373888D03*
X762762Y373888D03*
X788162Y373888D03*
D12*
X367030Y282194D03*
X367030Y307594D03*
D13*
X685892Y318156D02*
X700972Y318156D01*
X750892Y318156D02*
X765972Y318156D01*
X700972Y273156D02*
X685892Y273156D01*
X750892Y273156D02*
X765972Y273156D01*
D14*
X696976Y623316D03*
X696976Y521716D03*
D12*
X748284Y520700D03*
X748284Y622300D03*
X561848Y344932D03*
X561848Y446532D03*
X273304Y282194D03*
X273304Y307594D03*
X521716Y370332D03*
X521716Y471932D03*
D13*
X686400Y228748D02*
X701480Y228748D01*
X751400Y228748D02*
X766480Y228748D01*
X701480Y183748D02*
X686400Y183748D01*
X751400Y183748D02*
X766480Y183748D01*
D15*
X416306Y695452D03*
X257556Y695452D03*
X416306Y479552D03*
X257556Y479552D03*
D16*
X385732Y369288D03*
D17*
X405732Y369288D03*
X385732Y389288D03*
X405732Y389288D03*
X385732Y409288D03*
X405732Y409288D03*
X385732Y429288D03*
X405732Y429288D03*
D10*
X290322Y370840D03*
X290322Y420840D03*
D18*
X339471Y211455D02*
X339471Y194691D01*
X301371Y194691D02*
X301371Y211455D01*
X263271Y211455D02*
X263271Y194691D01*
D19*
X466852Y679831D03*
D20*
X466852Y654431D03*
X466852Y629031D03*
X466852Y603631D03*
X466852Y578231D03*
X466852Y552831D03*
X466852Y527431D03*
X466852Y502031D03*
X466852Y476631D03*
X466852Y451231D03*
X466852Y425831D03*
X466852Y400431D03*
X466852Y375031D03*
X466852Y349631D03*
X466852Y324231D03*
X619252Y679831D03*
X619252Y654431D03*
X619252Y629031D03*
X619252Y603631D03*
X619252Y578231D03*
X619252Y552831D03*
X619252Y527431D03*
X619252Y502031D03*
X619252Y476631D03*
X619252Y451231D03*
X619252Y425831D03*
X619252Y400431D03*
X619252Y375031D03*
X619252Y349631D03*
X619252Y324231D03*
D21*
X367030Y307594D02*
X273304Y307594D01*
X367030Y307594D02*
X374650Y307594D01*
X463042Y219202D01*
X684394Y219202D02*
X693940Y228748D01*
D22*
X693940Y228748D03*
D21*
X684394Y219202D02*
X463042Y219202D01*
X737362Y373888D02*
X737362Y481330D01*
X696976Y521716D01*
X737362Y362086D02*
X693432Y318156D01*
X737362Y362086D02*
X737362Y373888D01*
D23*
X750062Y407010D03*
D21*
X785571Y442519D01*
X785571Y637184D01*
X717550Y705206D01*
D23*
X658266Y705206D03*
X486766Y423418D03*
D21*
X486766Y394945D01*
X466852Y375031D01*
X658266Y705206D02*
X717550Y705206D01*
D22*
X714058Y484188D03*
D21*
X678434Y448564D01*
X678434Y428752D02*
X679069Y428117D01*
D22*
X679069Y428117D03*
X537909Y304356D03*
D21*
X492633Y349631D01*
X466852Y349631D01*
X678434Y428752D02*
X678434Y448564D01*
D24*
X697738Y622554D02*
X696976Y623316D01*
D21*
X697992Y622300D02*
X748284Y622300D01*
X697992Y622300D02*
X696976Y623316D01*
X686562Y394843D02*
X686562Y373888D01*
X686562Y394843D02*
X660400Y421005D01*
X660400Y584708D01*
X697992Y622300D01*
X429862Y389288D02*
X405732Y389288D01*
X429862Y389288D02*
X447675Y371475D01*
X447675Y288457D01*
X464225Y271907D01*
X526415Y271907D02*
X581533Y327025D01*
X581533Y499237D01*
X620713Y538417D01*
X526415Y271907D02*
X464225Y271907D01*
X405732Y389288D02*
X385732Y389288D01*
X385732Y369288D02*
X405732Y369288D01*
X419001Y369288D01*
X433705Y354584D01*
X433705Y270510D01*
X474028Y230188D01*
X544386Y230188D01*
X590677Y473456D02*
X619252Y502031D01*
X590677Y276479D02*
X544386Y230188D01*
X590677Y276479D02*
X590677Y473456D01*
X561848Y446532D02*
X558292Y450088D01*
X552069Y450088D01*
X557149Y451231D02*
X466852Y451231D01*
X557149Y451231D02*
X561848Y446532D01*
D25*
X524383Y288544D03*
D21*
X488696Y324231D01*
X466852Y324231D01*
X328770Y409288D02*
X290322Y370840D01*
X328770Y409288D02*
X385732Y409288D01*
X405732Y409288D01*
D25*
X469392Y249555D03*
D21*
X547889Y249555D01*
X549021Y248423D01*
D25*
X549021Y248423D03*
D21*
X419702Y429288D02*
X445262Y454848D01*
X419702Y429288D02*
X405732Y429288D01*
X445262Y454848D02*
X445262Y713232D01*
X445389Y713232D02*
X445389Y703072D01*
X445262Y713232D02*
X445389Y713232D01*
X445262Y713232D02*
X457708Y725678D01*
X566801Y725678D01*
X592201Y700278D01*
X592201Y630059D01*
X618629Y603631D02*
X619252Y603631D01*
X618629Y603631D02*
X592201Y630059D01*
X405732Y429288D02*
X385732Y429288D01*
X382778Y282194D02*
X367030Y282194D01*
X382778Y282194D02*
X414909Y250063D01*
X414909Y220091D01*
X414401Y219583D01*
X414401Y218948D01*
D22*
X414401Y218948D03*
D21*
X273431Y282067D02*
X273304Y282194D01*
X273431Y282067D02*
X273431Y250698D01*
X290068Y234061D01*
X359156Y234061D01*
X359664Y234569D01*
D22*
X359664Y234569D03*
D21*
X471551Y471932D02*
X521716Y471932D01*
X471551Y471932D02*
X466852Y476631D01*
X531135Y183748D02*
X693940Y183748D01*
X531135Y183748D02*
X513080Y201803D01*
X513080Y202946D01*
X512191Y203835D01*
D25*
X512191Y203835D03*
D23*
X290068Y370840D03*
X290449Y420624D03*
M02*
