G04 EAGLE Gerber RS-274X export*
G75*
%MOMM*%
%FSLAX34Y34*%
%LPD*%
%IN*%
%IPPOS*%
%AMOC8*
5,1,8,0,0,1.08239X$1,22.5*%
G01*
%ADD10C,0.254000*%


D10*
X226822Y742442D02*
X229362Y151384D01*
X820676Y150622D01*
X818136Y741680D01*
X226822Y742442D01*
X813854Y161180D02*
X813785Y160660D01*
X813649Y160154D01*
X813449Y159669D01*
X813187Y159215D01*
X812867Y158799D01*
X812497Y158429D01*
X812081Y158109D01*
X811627Y157847D01*
X811142Y157647D01*
X810636Y157511D01*
X810116Y157442D01*
X809591Y157442D01*
X809072Y157511D01*
X808565Y157647D01*
X808081Y157847D01*
X807627Y158109D01*
X807211Y158429D01*
X806840Y158799D01*
X806521Y159215D01*
X806258Y159669D01*
X806058Y160154D01*
X805922Y160660D01*
X805854Y161180D01*
X805854Y161705D01*
X805922Y162224D01*
X806058Y162731D01*
X806258Y163215D01*
X806521Y163669D01*
X806840Y164085D01*
X807211Y164456D01*
X807627Y164775D01*
X808081Y165038D01*
X808565Y165238D01*
X809072Y165374D01*
X809591Y165442D01*
X810116Y165442D01*
X810636Y165374D01*
X811142Y165238D01*
X811627Y165038D01*
X812081Y164775D01*
X812497Y164456D01*
X812867Y164085D01*
X813187Y163669D01*
X813449Y163215D01*
X813649Y162731D01*
X813785Y162224D01*
X813854Y161705D01*
X813854Y161180D01*
X812126Y731512D02*
X812058Y730992D01*
X811922Y730485D01*
X811722Y730001D01*
X811459Y729547D01*
X811140Y729131D01*
X810769Y728760D01*
X810353Y728441D01*
X809899Y728179D01*
X809415Y727978D01*
X808908Y727842D01*
X808389Y727774D01*
X807864Y727774D01*
X807344Y727842D01*
X806838Y727978D01*
X806353Y728179D01*
X805899Y728441D01*
X805483Y728760D01*
X805113Y729131D01*
X804793Y729547D01*
X804531Y730001D01*
X804331Y730485D01*
X804195Y730992D01*
X804126Y731512D01*
X804126Y732036D01*
X804195Y732556D01*
X804331Y733063D01*
X804531Y733547D01*
X804793Y734001D01*
X805113Y734417D01*
X805483Y734788D01*
X805899Y735107D01*
X806353Y735369D01*
X806838Y735570D01*
X807344Y735706D01*
X807864Y735774D01*
X808389Y735774D01*
X808908Y735706D01*
X809415Y735570D01*
X809899Y735369D01*
X810353Y735107D01*
X810769Y734788D01*
X811140Y734417D01*
X811459Y734001D01*
X811722Y733547D01*
X811922Y733063D01*
X812058Y732556D01*
X812126Y732036D01*
X812126Y731512D01*
X241947Y731817D02*
X241879Y731297D01*
X241743Y730790D01*
X241542Y730306D01*
X241280Y729852D01*
X240961Y729436D01*
X240590Y729065D01*
X240174Y728746D01*
X239720Y728484D01*
X239236Y728283D01*
X238729Y728147D01*
X238209Y728079D01*
X237685Y728079D01*
X237165Y728147D01*
X236659Y728283D01*
X236174Y728484D01*
X235720Y728746D01*
X235304Y729065D01*
X234933Y729436D01*
X234614Y729852D01*
X234352Y730306D01*
X234151Y730790D01*
X234016Y731297D01*
X233947Y731817D01*
X233947Y732341D01*
X234016Y732861D01*
X234151Y733367D01*
X234352Y733852D01*
X234614Y734306D01*
X234933Y734722D01*
X235304Y735093D01*
X235720Y735412D01*
X236174Y735674D01*
X236659Y735875D01*
X237165Y736010D01*
X237685Y736079D01*
X238209Y736079D01*
X238729Y736010D01*
X239236Y735875D01*
X239720Y735674D01*
X240174Y735412D01*
X240590Y735093D01*
X240961Y734722D01*
X241280Y734306D01*
X241542Y733852D01*
X241743Y733367D01*
X241879Y732861D01*
X241947Y732341D01*
X241947Y731817D01*
X244284Y162450D02*
X244216Y161930D01*
X244080Y161424D01*
X243879Y160939D01*
X243617Y160485D01*
X243298Y160069D01*
X242927Y159699D01*
X242511Y159379D01*
X242057Y159117D01*
X241573Y158917D01*
X241066Y158781D01*
X240546Y158712D01*
X240022Y158712D01*
X239502Y158781D01*
X238995Y158917D01*
X238511Y159117D01*
X238057Y159379D01*
X237641Y159699D01*
X237270Y160069D01*
X236951Y160485D01*
X236689Y160939D01*
X236488Y161424D01*
X236352Y161930D01*
X236284Y162450D01*
X236284Y162975D01*
X236352Y163494D01*
X236488Y164001D01*
X236689Y164485D01*
X236951Y164939D01*
X237270Y165355D01*
X237641Y165726D01*
X238057Y166045D01*
X238511Y166308D01*
X238995Y166508D01*
X239502Y166644D01*
X240022Y166712D01*
X240546Y166712D01*
X241066Y166644D01*
X241573Y166508D01*
X242057Y166308D01*
X242511Y166045D01*
X242927Y165726D01*
X243298Y165355D01*
X243617Y164939D01*
X243879Y164485D01*
X244080Y164001D01*
X244216Y163494D01*
X244284Y162975D01*
X244284Y162450D01*
X475971Y283795D02*
X475891Y282988D01*
X475733Y282192D01*
X475497Y281416D01*
X475187Y280667D01*
X474805Y279952D01*
X474354Y279277D01*
X473840Y278650D01*
X473266Y278077D01*
X472639Y277562D01*
X471965Y277112D01*
X471249Y276729D01*
X470500Y276419D01*
X469724Y276183D01*
X468928Y276025D01*
X468121Y275946D01*
X467310Y275946D01*
X466503Y276025D01*
X465707Y276183D01*
X464931Y276419D01*
X464182Y276729D01*
X463467Y277112D01*
X462792Y277562D01*
X462165Y278077D01*
X461592Y278650D01*
X461077Y279277D01*
X460627Y279952D01*
X460244Y280667D01*
X459934Y281416D01*
X459698Y282192D01*
X459540Y282988D01*
X459461Y283795D01*
X459461Y284606D01*
X459540Y285413D01*
X459698Y286209D01*
X459934Y286985D01*
X460244Y287734D01*
X460627Y288450D01*
X461077Y289124D01*
X461592Y289751D01*
X462165Y290325D01*
X462792Y290839D01*
X463467Y291290D01*
X464182Y291672D01*
X464931Y291982D01*
X465707Y292218D01*
X466503Y292376D01*
X467310Y292456D01*
X468121Y292456D01*
X468928Y292376D01*
X469724Y292218D01*
X470500Y291982D01*
X471249Y291672D01*
X471965Y291290D01*
X472639Y290839D01*
X473266Y290325D01*
X473840Y289751D01*
X474354Y289124D01*
X474805Y288450D01*
X475187Y287734D01*
X475497Y286985D01*
X475733Y286209D01*
X475891Y285413D01*
X475971Y284606D01*
X475971Y283795D01*
X628371Y283795D02*
X628291Y282988D01*
X628133Y282192D01*
X627897Y281416D01*
X627587Y280667D01*
X627205Y279952D01*
X626754Y279277D01*
X626240Y278650D01*
X625666Y278077D01*
X625039Y277562D01*
X624365Y277112D01*
X623649Y276729D01*
X622900Y276419D01*
X622124Y276183D01*
X621328Y276025D01*
X620521Y275946D01*
X619710Y275946D01*
X618903Y276025D01*
X618107Y276183D01*
X617331Y276419D01*
X616582Y276729D01*
X615867Y277112D01*
X615192Y277562D01*
X614565Y278077D01*
X613992Y278650D01*
X613477Y279277D01*
X613027Y279952D01*
X612644Y280667D01*
X612334Y281416D01*
X612098Y282192D01*
X611940Y282988D01*
X611861Y283795D01*
X611861Y284606D01*
X611940Y285413D01*
X612098Y286209D01*
X612334Y286985D01*
X612644Y287734D01*
X613027Y288450D01*
X613477Y289124D01*
X613992Y289751D01*
X614565Y290325D01*
X615192Y290839D01*
X615867Y291290D01*
X616582Y291672D01*
X617331Y291982D01*
X618107Y292218D01*
X618903Y292376D01*
X619710Y292456D01*
X620521Y292456D01*
X621328Y292376D01*
X622124Y292218D01*
X622900Y291982D01*
X623649Y291672D01*
X624365Y291290D01*
X625039Y290839D01*
X625666Y290325D01*
X626240Y289751D01*
X626754Y289124D01*
X627205Y288450D01*
X627587Y287734D01*
X627897Y286985D01*
X628133Y286209D01*
X628291Y285413D01*
X628371Y284606D01*
X628371Y283795D01*
X628371Y690195D02*
X628291Y689388D01*
X628133Y688592D01*
X627897Y687816D01*
X627587Y687067D01*
X627205Y686352D01*
X626754Y685677D01*
X626240Y685050D01*
X625666Y684477D01*
X625039Y683962D01*
X624365Y683512D01*
X623649Y683129D01*
X622900Y682819D01*
X622124Y682583D01*
X621328Y682425D01*
X620521Y682346D01*
X619710Y682346D01*
X618903Y682425D01*
X618107Y682583D01*
X617331Y682819D01*
X616582Y683129D01*
X615867Y683512D01*
X615192Y683962D01*
X614565Y684477D01*
X613992Y685050D01*
X613477Y685677D01*
X613027Y686352D01*
X612644Y687067D01*
X612334Y687816D01*
X612098Y688592D01*
X611940Y689388D01*
X611861Y690195D01*
X611861Y691006D01*
X611940Y691813D01*
X612098Y692609D01*
X612334Y693385D01*
X612644Y694134D01*
X613027Y694850D01*
X613477Y695524D01*
X613992Y696151D01*
X614565Y696725D01*
X615192Y697239D01*
X615867Y697690D01*
X616582Y698072D01*
X617331Y698382D01*
X618107Y698618D01*
X618903Y698776D01*
X619710Y698856D01*
X620521Y698856D01*
X621328Y698776D01*
X622124Y698618D01*
X622900Y698382D01*
X623649Y698072D01*
X624365Y697690D01*
X625039Y697239D01*
X625666Y696725D01*
X626240Y696151D01*
X626754Y695524D01*
X627205Y694850D01*
X627587Y694134D01*
X627897Y693385D01*
X628133Y692609D01*
X628291Y691813D01*
X628371Y691006D01*
X628371Y690195D01*
X475971Y690195D02*
X475891Y689388D01*
X475733Y688592D01*
X475497Y687816D01*
X475187Y687067D01*
X474805Y686352D01*
X474354Y685677D01*
X473840Y685050D01*
X473266Y684477D01*
X472639Y683962D01*
X471965Y683512D01*
X471249Y683129D01*
X470500Y682819D01*
X469724Y682583D01*
X468928Y682425D01*
X468121Y682346D01*
X467310Y682346D01*
X466503Y682425D01*
X465707Y682583D01*
X464931Y682819D01*
X464182Y683129D01*
X463467Y683512D01*
X462792Y683962D01*
X462165Y684477D01*
X461592Y685050D01*
X461077Y685677D01*
X460627Y686352D01*
X460244Y687067D01*
X459934Y687816D01*
X459698Y688592D01*
X459540Y689388D01*
X459461Y690195D01*
X459461Y691006D01*
X459540Y691813D01*
X459698Y692609D01*
X459934Y693385D01*
X460244Y694134D01*
X460627Y694850D01*
X461077Y695524D01*
X461592Y696151D01*
X462165Y696725D01*
X462792Y697239D01*
X463467Y697690D01*
X464182Y698072D01*
X464931Y698382D01*
X465707Y698618D01*
X466503Y698776D01*
X467310Y698856D01*
X468121Y698856D01*
X468928Y698776D01*
X469724Y698618D01*
X470500Y698382D01*
X471249Y698072D01*
X471965Y697690D01*
X472639Y697239D01*
X473266Y696725D01*
X473840Y696151D01*
X474354Y695524D01*
X474805Y694850D01*
X475187Y694134D01*
X475497Y693385D01*
X475733Y692609D01*
X475891Y691813D01*
X475971Y691006D01*
X475971Y690195D01*
M02*
