G04 EAGLE Gerber RS-274X export*
G75*
%MOMM*%
%FSLAX34Y34*%
%LPD*%
%INSoldermask Top*%
%IPPOS*%
%AMOC8*
5,1,8,0,0,1.08239X$1,22.5*%
G01*
%ADD10C,1.003200*%
%ADD11C,1.711200*%
%ADD12R,1.711200X1.711200*%
%ADD13P,1.649562X8X112.500000*%
%ADD14C,1.711200*%
%ADD15P,1.649562X8X292.500000*%
%ADD16R,3.203200X3.203200*%
%ADD17R,1.422400X1.422400*%
%ADD18C,1.422400*%
%ADD19C,1.879600*%
%ADD20R,1.981200X1.981200*%
%ADD21C,1.981200*%
%ADD22C,1.854200*%
%ADD23C,1.403200*%
%ADD24C,1.503200*%
%ADD25C,1.053200*%


D10*
X809854Y161442D03*
X808126Y731774D03*
X237947Y732079D03*
X240284Y162712D03*
D11*
X686562Y373888D03*
D12*
X661162Y373888D03*
D11*
X711962Y373888D03*
X737362Y373888D03*
X762762Y373888D03*
X788162Y373888D03*
D13*
X367030Y282194D03*
X367030Y307594D03*
D14*
X685892Y318156D02*
X700972Y318156D01*
X750892Y318156D02*
X765972Y318156D01*
X700972Y273156D02*
X685892Y273156D01*
X750892Y273156D02*
X765972Y273156D01*
D15*
X696976Y623316D03*
X696976Y521716D03*
D13*
X748284Y520700D03*
X748284Y622300D03*
X561848Y344932D03*
X561848Y446532D03*
X273304Y282194D03*
X273304Y307594D03*
X521716Y370332D03*
X521716Y471932D03*
D14*
X686400Y228748D02*
X701480Y228748D01*
X751400Y228748D02*
X766480Y228748D01*
X701480Y183748D02*
X686400Y183748D01*
X751400Y183748D02*
X766480Y183748D01*
D16*
X416306Y695452D03*
X257556Y695452D03*
X416306Y479552D03*
X257556Y479552D03*
D17*
X385732Y369288D03*
D18*
X405732Y369288D03*
X385732Y389288D03*
X405732Y389288D03*
X385732Y409288D03*
X405732Y409288D03*
X385732Y429288D03*
X405732Y429288D03*
D11*
X290322Y370840D03*
X290322Y420840D03*
D19*
X339471Y211455D02*
X339471Y194691D01*
X301371Y194691D02*
X301371Y211455D01*
X263271Y211455D02*
X263271Y194691D01*
D20*
X466852Y679831D03*
D21*
X466852Y654431D03*
X466852Y629031D03*
X466852Y603631D03*
X466852Y578231D03*
X466852Y552831D03*
X466852Y527431D03*
X466852Y502031D03*
X466852Y476631D03*
X466852Y451231D03*
X466852Y425831D03*
X466852Y400431D03*
X466852Y375031D03*
X466852Y349631D03*
X466852Y324231D03*
X619252Y679831D03*
X619252Y654431D03*
X619252Y629031D03*
X619252Y603631D03*
X619252Y578231D03*
X619252Y552831D03*
X619252Y527431D03*
X619252Y502031D03*
X619252Y476631D03*
X619252Y451231D03*
X619252Y425831D03*
X619252Y400431D03*
X619252Y375031D03*
X619252Y349631D03*
X619252Y324231D03*
D22*
X466852Y298831D03*
X619252Y298831D03*
X619252Y705231D03*
X466852Y705231D03*
D23*
X693940Y228748D03*
D24*
X750062Y407010D03*
X658266Y705206D03*
X486766Y423418D03*
D23*
X714058Y484188D03*
X679069Y428117D03*
X537909Y304356D03*
D25*
X524383Y288544D03*
X469392Y249555D03*
X549021Y248423D03*
D23*
X414401Y218948D03*
X359664Y234569D03*
D25*
X512191Y203835D03*
D24*
X290068Y370840D03*
X290449Y420624D03*
M02*
